# xmcd
#
# Track frame offsets:
#	150
#	20502
#	41415
#	55517
#	70552
#	90222
#	111762
#	127872
#	149335
#	159885
#	181097
#	192034
#	202375
#	218645
#	231352
#	249827
#	262875
#	280975
#	308575
#
# Disc length: 4293 seconds
#
# Revision: 2
# Processed by: cddbd v1.5.2PL0 Copyright (c) Steve Scherf et al.
# Submitted via: EZCDAudioConverter 3.1.5.1
#
DISCID=f210c313
DTITLE=Γιώργος Νταλάρας - Το Μουσικό Κουτί_Επί Σκηνής CD1
DYEAR=1997
DGENRE=Vocal
TTITLE0=Στο μεταξύ Η Ελλάδα Ταξιδεύει
TTITLE1=Καλωσόρισμα
TTITLE2=Αν Υπάρχει Λόγος
TTITLE3=Λόγια Κλειδωμένα
TTITLE4=Ταξίδι Στα Κύθηρα
TTITLE5=Η Δημοσθένους Λέξις
TTITLE6=Ο Θάνατος Του Ποιητή
TTITLE7=El Emigrante
TTITLE8=Μανουέλα
TTITLE9=Dui-Dui (Δυο-Δυο)
TTITLE10=Άυγουστος
TTITLE11=Το πολλαπλό Σου Είδωλο
TTITLE12=LIL (Μόνο Λόγια)
TTITLE13=Όσο Βαρούν Τα Σίδερα
TTITLE14=Ο Ζόρικος
TTITLE15=Αν Είναι Η Αγάπη Έγκλημα
TTITLE16=Καλή Τύχη
TTITLE17=Με Τελείωσες
TTITLE18=Ήρθα Κι Απόψε Στα Σκαλοπάτια Σου
EXTD=
EXTT0=
EXTT1=
EXTT2=
EXTT3=
EXTT4=
EXTT5=
EXTT6=
EXTT7=
EXTT8=
EXTT9=
EXTT10=
EXTT11=
EXTT12=
EXTT13=
EXTT14=
EXTT15=
EXTT16=
EXTT17=
EXTT18=
PLAYORDER=
